<?xml version="1.0" encoding="iso-8859-1"?>
<!-- Uploaded to: SVG Repo, www.svgrepo.com, Generator: SVG Repo Mixer Tools -->
<svg height="800px" width="800px" version="1.1" id="Layer_1" xmlns="http://www.w3.org/2000/svg" xmlns:xlink="http://www.w3.org/1999/xlink" 
	 viewBox="0 0 511.666 511.666" xml:space="preserve">
<path style="fill:#EAC6BB;" d="M65.83,246.902C72.42,379.364,183.786,490.23,256.787,490.23c72.985,0,184.35-110.866,190.94-243.328
	H65.83z"/>
<g>
	<path style="fill:#434A54;" d="M285.674,422.149L285.674,422.149c1.391-1.796,2.218-4.044,2.218-6.496
		c0-5.887-4.763-10.665-10.649-10.665c-3.295,0-6.246,1.499-8.197,3.857c0.172-0.203,0.266-0.312,0.281-0.312
		c-0.047,0.031-3.467,3.123-13.399,3.123c-9.931,0-13.351-3.092-13.382-3.123c0,0,0.094,0.109,0.265,0.312
		c-1.952-2.358-4.887-3.857-8.198-3.857c-5.871,0-10.649,4.778-10.649,10.665c0,2.452,0.843,4.7,2.233,6.496h-0.016
		c0.062,0.078,0.125,0.156,0.203,0.25c0.016,0.016,0.016,0.031,0.031,0.047c1.905,2.311,10.041,10.509,29.512,10.509
		c19.473,0,27.608-8.198,29.512-10.509c0.016-0.016,0.031-0.031,0.031-0.047C285.549,422.306,285.627,422.228,285.674,422.149z
		 M268.998,408.893c-0.062,0.077-0.125,0.171-0.188,0.249l0,0C268.873,409.048,268.936,408.97,268.998,408.893z M243.061,409.142
		h-0.016c-0.062-0.078-0.109-0.172-0.188-0.249C242.92,408.97,242.982,409.048,243.061,409.142z"/>
	<path style="fill:#434A54;" d="M202.665,309.097c0,5.887-4.778,10.665-10.665,10.665s-10.649-4.778-10.649-10.665
		s4.763-10.649,10.649-10.649S202.665,303.21,202.665,309.097z"/>
	<path style="fill:#434A54;" d="M309.206,309.097c0,5.887,4.763,10.665,10.649,10.665s10.649-4.778,10.649-10.665
		s-4.763-10.649-10.649-10.649S309.206,303.21,309.206,309.097z"/>
</g>
<g>
	<path style="fill:#656D78;" d="M215.063,287.954v-0.016l-63.928-10.649l0,0c-0.562-0.094-1.156-0.156-1.749-0.156
		c-5.887,0-10.649,4.778-10.649,10.665c0,5.278,3.857,9.665,8.9,10.493v0.016l63.928,10.649v-0.016
		c0.562,0.094,1.156,0.156,1.749,0.156c5.887,0,10.649-4.763,10.649-10.649C223.963,293.154,220.106,288.781,215.063,287.954z"/>
	<path style="fill:#656D78;" d="M373.134,287.798c0-5.887-4.778-10.665-10.665-10.665c-0.594,0-1.171,0.062-1.748,0.156l0,0
		l-63.928,10.649v0.016c-5.045,0.827-8.901,5.2-8.901,10.493c0,5.887,4.778,10.649,10.649,10.649c0.609,0,1.188-0.062,1.749-0.156
		l0.016,0.016l63.928-10.649l-0.016-0.016C369.277,297.463,373.134,293.076,373.134,287.798z"/>
</g>
<path style="fill:#434A54;" d="M385.829,35.444c-29.45-11.055-95.813,20.69-120.11,19.191
	c-24.313-1.483-93.769-41.114-116.895-31.776c-23.11,9.337-95.611,200.621-95.611,200.621l408.349,21.689
	C461.562,245.169,415.295,46.499,385.829,35.444z"/>
<g style="opacity:0.2;">
	<path style="fill:#FFFFFF;" d="M148.824,44.157c23.125-9.338,92.581,30.293,116.895,31.792
		c24.297,1.499,90.66-30.246,120.11-19.191c23.438,8.792,57.525,136.366,70.47,188.129l5.264,0.281
		c0,0-46.268-198.67-75.733-209.725c-29.45-11.055-95.813,20.69-120.11,19.191c-24.313-1.483-93.769-41.114-116.895-31.776
		c-23.11,9.337-95.611,200.621-95.611,200.621l8.073,0.422C80.852,174.042,130.445,51.59,148.824,44.157z"/>
</g>
<path style="fill:#656D78;" d="M511.124,265.047c-7.198,11.086-493.029-10.962-509.081-27.046
	c-16.052-16.099,67.769-55.246,67.769-55.246s84.353,6.34,189.676,11.945c105.338,5.59,191.674,8.76,191.674,8.76
	S518.338,253.944,511.124,265.047z"/>
<g>
	<path style="fill:#DBADA2;" d="M382.675,368.309L382.675,368.309c-1.749-3.514-5.356-5.934-9.541-5.934
		c-5.887,0-10.665,4.778-10.665,10.649c0,1.702,0.406,3.295,1.125,4.716l-0.016,0.016l17.613,35.649
		c4.965-6.074,9.775-12.43,14.365-19.035L382.675,368.309z"/>
	<path style="fill:#DBADA2;" d="M128.072,394.339c-3.045,0-5.793,1.28-7.729,3.342c4.123,5.777,8.401,11.336,12.804,16.677
		c3.326-1.796,5.59-5.325,5.59-9.369C138.737,399.102,133.958,394.339,128.072,394.339z"/>
	<path style="fill:#DBADA2;" d="M147.825,417.199c-3.513,0-6.621,1.718-8.557,4.341c4.685,5.341,9.494,10.415,14.397,15.225
		c2.904-1.904,4.825-5.184,4.825-8.916C158.49,421.962,153.711,417.199,147.825,417.199z"/>
</g>
</svg>